# xmcd
# 
# Track frame offsets:
#     150
#     1982
#     24606
#     42121
#     61811
#     85048
#     102921
#     126480
#     143976
#     152320
#     178337
#     201763
#     218404
#     241640
#     265797
#     280011
#     304649
# 
# Disc length: 4283
# 
# Revision: 0
# Processed by: cddbd v1.5.2PL0 Copyright (c) Steve Scherf et al.
# Submitted via: fre:ac v1.0.17
# 
DISCID=d810b911
DTITLE=Johann Müller - Wonderboora Dooch
DYEAR=2012
DGENRE=Blues
TTITLE0=Hobelsolo fier an Engel
TTITLE1=Reegndrobfm auf der Windschudzscheim
TTITLE2=Midnanner
TTITLE3=Alles subber
TTITLE4=A wunderboorer Dooch
TTITLE5=Der Mond scheind hell ieber Frankn
TTITLE6=Zwischer Schdeigerwald und Aaschgrund
TTITLE7=Di Leid ham Sorgn
TTITLE8=Jakobs Blues
TTITLE9=44 Kinner
TTITLE10=Manni Mond
TTITLE11=Soweid fodd
TTITLE12=Di Kur
TTITLE13=Iech hob di hoggn sähng
TTITLE14=Wenn di Weld bloß lusdi wär
TTITLE15=Vobei
TTITLE16=Ledzder Hald
EXTD=Mundart: fränkisch
EXTT0=
EXTT1=
EXTT2=
EXTT3=
EXTT4=
EXTT5=
EXTT6=
EXTT7=
EXTT8=
EXTT9=
EXTT10=
EXTT11=
EXTT12=
EXTT13=
EXTT14=
EXTT15=
EXTT16=
PLAYORDER=
